<?xml version="1.0" encoding="UTF-8" standalone="no"?>
<!DOCTYPE svg PUBLIC "-//W3C//DTD SVG 1.1//EN" "http://www.w3.org/Graphics/SVG/1.1/DTD/svg11.dtd">
<svg width="100%" height="100%" viewBox="0 0 2000 1000" version="1.1" xmlns="http://www.w3.org/2000/svg" xmlns:xlink="http://www.w3.org/1999/xlink" xml:space="preserve" xmlns:serif="http://www.serif.com/" style="fill-rule:evenodd;clip-rule:evenodd;stroke-linecap:round;stroke-linejoin:round;stroke-miterlimit:10;">
    <g id="Nomination" transform="matrix(1,0,0,1,903,-561.152)">
        <g transform="matrix(32.4589,0,0,32.4589,-1065.57,-410.615)">
            <path d="M40.109,42.951C40.109,43.116 40.243,43.25 40.409,43.25L43.144,43.25C43.286,43.25 43.421,43.306 43.522,43.406C43.622,43.507 43.678,43.642 43.678,43.784L43.678,43.807C43.678,44.102 43.439,44.341 43.144,44.341L39.486,44.341C39.076,44.341 38.743,44.008 38.743,43.598L38.743,37.157C38.743,36.783 39.047,36.48 39.421,36.48L39.432,36.48C39.612,36.48 39.784,36.551 39.911,36.678C40.038,36.805 40.109,36.978 40.109,37.157L40.109,42.951Z" style="fill:rgb(30,32,42);fill-rule:nonzero;"/>
        </g>
        <g transform="matrix(32.4589,0,0,32.4589,-1065.57,-345.074)">
            <path d="M47.171,42.429C46.339,42.429 45.666,42.167 45.149,41.644C44.633,41.12 44.374,40.423 44.374,39.552L44.374,39.39C44.374,38.807 44.487,38.286 44.712,37.827C44.937,37.368 45.253,37.011 45.659,36.755C46.066,36.5 46.519,36.372 47.02,36.372C47.815,36.372 48.43,36.626 48.863,37.133C49.297,37.641 49.514,38.359 49.514,39.287L49.514,39.355C49.514,39.61 49.307,39.816 49.052,39.816L45.697,39.816C45.737,40.299 45.898,40.68 46.18,40.961C46.463,41.242 46.818,41.382 47.246,41.382C47.696,41.382 48.083,41.246 48.408,40.974C48.605,40.813 48.891,40.824 49.075,40.999C49.079,41.001 49.082,41.003 49.085,41.006C49.185,41.102 49.242,41.234 49.241,41.372C49.241,41.511 49.185,41.643 49.084,41.738C48.907,41.894 48.709,42.03 48.486,42.14C48.095,42.333 47.657,42.429 47.171,42.429ZM47.014,37.425C46.654,37.425 46.364,37.551 46.142,37.803C45.945,38.027 45.811,38.331 45.741,38.713C45.735,38.748 45.744,38.784 45.767,38.812C45.79,38.839 45.824,38.855 45.86,38.855C46.315,38.855 47.736,38.855 48.121,38.855C48.175,38.855 48.218,38.812 48.218,38.758L48.218,38.758C48.189,38.319 48.073,37.987 47.867,37.762C47.662,37.537 47.378,37.425 47.014,37.425Z" style="fill:rgb(30,32,42);fill-rule:nonzero;"/>
        </g>
        <g transform="matrix(32.4589,0,0,32.4589,-1065.57,-345.074)">
            <path d="M54.175,42.321C54.079,42.321 53.994,42.262 53.961,42.172C53.929,42.068 53.898,41.936 53.871,41.776C53.453,42.212 52.942,42.429 52.338,42.429C51.751,42.429 51.272,42.262 50.901,41.927C50.531,41.593 50.345,41.179 50.345,40.686C50.345,40.063 50.577,39.585 51.039,39.252C51.502,38.919 52.163,38.753 53.023,38.753L53.828,38.753L53.828,38.37C53.828,38.067 53.743,37.825 53.574,37.643C53.405,37.462 53.147,37.371 52.802,37.371C52.503,37.371 52.258,37.445 52.068,37.595C51.999,37.649 51.942,37.708 51.898,37.772C51.729,38.017 51.451,38.163 51.153,38.163C51.153,38.164 51.153,38.164 51.153,38.164C50.96,38.164 50.783,38.058 50.693,37.888C50.603,37.717 50.615,37.511 50.723,37.352C50.745,37.324 50.766,37.295 50.788,37.265C51,36.987 51.289,36.768 51.655,36.609C52.02,36.451 52.428,36.372 52.877,36.372C53.561,36.372 54.107,36.544 54.513,36.888C54.92,37.231 55.129,37.714 55.139,38.337L55.139,40.972C55.139,41.497 55.213,41.917 55.361,42.23L55.361,42.23C55.361,42.254 55.351,42.277 55.334,42.295C55.317,42.312 55.293,42.321 55.269,42.321L54.175,42.321ZM52.58,41.377C52.84,41.377 53.083,41.314 53.312,41.188C53.541,41.062 53.712,40.893 53.828,40.68L53.828,39.579L53.12,39.579C52.634,39.579 52.269,39.663 52.024,39.833C51.78,40.002 51.657,40.241 51.657,40.551C51.657,40.802 51.741,41.003 51.908,41.153C52.076,41.302 52.3,41.377 52.58,41.377Z" style="fill:rgb(30,32,42);fill-rule:nonzero;"/>
        </g>
        <g transform="matrix(32.4589,0,0,32.4589,-1065.57,-421.129)">
            <path d="M56.268,41.701C56.268,40.801 56.477,40.078 56.894,39.533C57.312,38.988 57.871,38.715 58.573,38.715C59.192,38.715 59.692,38.931 60.074,39.363L60.074,37.028C60.074,36.854 60.143,36.687 60.266,36.564C60.389,36.441 60.556,36.372 60.73,36.372L60.73,36.372C61.092,36.372 61.386,36.666 61.386,37.028L61.386,44.043C61.386,44.208 61.32,44.366 61.204,44.482C61.087,44.599 60.929,44.665 60.764,44.665L60.757,44.665C60.439,44.665 60.172,44.425 60.139,44.109C60.135,44.078 60.133,44.06 60.133,44.06C59.741,44.535 59.217,44.773 58.562,44.773C57.878,44.773 57.325,44.497 56.902,43.947C56.479,43.396 56.268,42.647 56.268,41.701ZM57.58,41.814C57.58,42.408 57.694,42.871 57.923,43.204C58.151,43.537 58.476,43.704 58.897,43.704C59.433,43.704 59.826,43.464 60.074,42.986L60.074,40.491C59.833,40.023 59.444,39.789 58.908,39.789C58.483,39.789 58.156,39.958 57.925,40.294C57.695,40.631 57.58,41.137 57.58,41.814Z" style="fill:rgb(30,32,42);fill-rule:nonzero;"/>
        </g>
        <g transform="matrix(32.8662,0,0,32.8662,-1865.62,-12.6592)">
            <path d="M64.992,42.138C65.521,42.138 65.958,41.998 66.301,41.717C66.615,41.461 66.799,41.115 66.853,40.679C66.862,40.606 66.924,40.552 66.997,40.552C66.998,40.551 66.999,40.551 66.999,40.551C67.041,40.551 67.081,40.568 67.108,40.599C67.136,40.63 67.149,40.672 67.144,40.713C67.084,41.203 66.871,41.604 66.504,41.914C66.097,42.258 65.593,42.429 64.992,42.429C64.262,42.429 63.681,42.165 63.251,41.636C62.821,41.107 62.606,40.389 62.606,39.482L62.606,39.287C62.606,38.402 62.821,37.695 63.251,37.166C63.681,36.637 64.258,36.372 64.981,36.372C65.601,36.372 66.112,36.557 66.515,36.928C66.882,37.266 67.093,37.706 67.146,38.248C67.15,38.289 67.136,38.329 67.109,38.359C67.082,38.389 67.043,38.406 67.002,38.406C67.001,38.407 67.001,38.407 67,38.407C66.925,38.407 66.862,38.35 66.855,38.276C66.808,37.811 66.627,37.433 66.312,37.141C65.969,36.823 65.525,36.664 64.981,36.664C64.33,36.664 63.82,36.898 63.451,37.368C63.082,37.838 62.898,38.49 62.898,39.325L62.898,39.514C62.898,40.331 63.084,40.973 63.456,41.439C63.829,41.905 64.341,42.138 64.992,42.138Z" style="fill:rgb(34,150,243);fill-rule:nonzero;"/>
        </g>
        <g transform="matrix(32.8662,0,0,32.8662,-1865.62,-12.6592)">
            <path d="M68.178,39.287C68.178,38.729 68.285,38.228 68.499,37.784C68.713,37.339 69.015,36.993 69.406,36.745C69.796,36.496 70.238,36.372 70.731,36.372C71.221,36.372 71.66,36.493 72.048,36.734C72.437,36.975 72.74,37.317 72.958,37.759C73.176,38.202 73.287,38.701 73.29,39.255L73.29,39.514C73.29,40.075 73.184,40.578 72.972,41.02C72.759,41.463 72.458,41.808 72.067,42.057C71.677,42.305 71.235,42.429 70.742,42.429C70.249,42.429 69.807,42.307 69.417,42.062C69.026,41.818 68.723,41.475 68.507,41.034C68.291,40.593 68.181,40.097 68.178,39.546L68.178,39.287ZM68.469,39.514C68.469,40 68.565,40.445 68.758,40.85C68.95,41.255 69.219,41.571 69.562,41.798C69.906,42.024 70.299,42.138 70.742,42.138C71.408,42.138 71.95,41.888 72.37,41.387C72.789,40.887 72.999,40.243 72.999,39.455L72.999,39.287C72.999,38.809 72.901,38.366 72.707,37.959C72.513,37.552 72.244,37.235 71.9,37.006C71.556,36.778 71.167,36.664 70.731,36.664C70.065,36.664 69.522,36.917 69.101,37.425C68.68,37.932 68.469,38.571 68.469,39.341L68.469,39.514Z" style="fill:rgb(34,150,243);fill-rule:nonzero;"/>
        </g>
        <g transform="matrix(32.8662,0,0,32.8662,-1865.62,-89.6681)">
            <path d="M74.435,41.684C74.435,40.752 74.631,40.024 75.023,39.501C75.415,38.977 75.954,38.715 76.637,38.715C77.077,38.715 77.464,38.814 77.801,39.012C78.137,39.21 78.41,39.505 78.619,39.897L78.619,36.516C78.619,36.478 78.634,36.441 78.661,36.414C78.688,36.387 78.725,36.372 78.763,36.372L78.766,36.372C78.804,36.372 78.841,36.387 78.868,36.414C78.895,36.441 78.91,36.478 78.91,36.516L78.91,44.519C78.91,44.558 78.895,44.595 78.868,44.622C78.84,44.649 78.803,44.665 78.765,44.665L78.764,44.665C78.726,44.665 78.689,44.649 78.661,44.622C78.634,44.595 78.619,44.558 78.619,44.519L78.619,43.731C78.421,44.062 78.149,44.318 77.804,44.5C77.458,44.682 77.066,44.773 76.627,44.773C75.95,44.773 75.415,44.504 75.023,43.968C74.631,43.432 74.435,42.696 74.435,41.76L74.435,41.684ZM74.737,41.798C74.737,42.626 74.901,43.28 75.228,43.76C75.556,44.241 76.02,44.481 76.621,44.481C77.104,44.481 77.516,44.374 77.858,44.16C78.199,43.946 78.453,43.632 78.619,43.218L78.619,40.481C78.284,39.498 77.622,39.007 76.632,39.007C76.035,39.007 75.569,39.242 75.236,39.714C74.904,40.185 74.737,40.88 74.737,41.798Z" style="fill:rgb(34,150,243);fill-rule:nonzero;"/>
        </g>
        <g transform="matrix(32.8662,0,0,32.8662,-1865.62,-12.6592)">
            <path d="M82.857,42.429C82.385,42.429 81.952,42.302 81.558,42.049C81.164,41.795 80.856,41.447 80.632,41.004C80.409,40.561 80.298,40.07 80.298,39.53L80.298,39.287C80.298,38.747 80.406,38.253 80.622,37.803C80.838,37.353 81.135,37.002 81.512,36.75C81.89,36.498 82.303,36.372 82.749,36.372C83.4,36.372 83.933,36.604 84.347,37.068C84.761,37.533 84.968,38.143 84.968,38.899L84.968,39.034C84.968,39.08 84.95,39.124 84.917,39.156C84.885,39.188 84.841,39.206 84.795,39.206L80.589,39.206L80.589,39.524C80.589,39.999 80.689,40.438 80.889,40.842C81.089,41.246 81.364,41.563 81.715,41.793C82.066,42.023 82.446,42.138 82.857,42.138C83.249,42.138 83.583,42.073 83.858,41.942C84.102,41.827 84.32,41.656 84.515,41.431C84.558,41.38 84.633,41.37 84.688,41.409L84.688,41.409C84.717,41.429 84.736,41.46 84.741,41.495C84.747,41.53 84.738,41.565 84.716,41.594C84.282,42.151 83.663,42.429 82.857,42.429ZM82.749,36.664C82.18,36.664 81.698,36.875 81.302,37.298C80.906,37.721 80.674,38.26 80.605,38.915L84.606,38.915C84.645,38.915 84.676,38.883 84.676,38.845L84.676,38.845C84.676,38.449 84.592,38.081 84.425,37.741C84.258,37.4 84.027,37.136 83.734,36.947C83.441,36.758 83.112,36.664 82.749,36.664Z" style="fill:rgb(34,150,243);fill-rule:nonzero;"/>
        </g>
    </g>
    <g id="logo.v1" transform="matrix(1.33469,0,0,1.33469,509.5,509.5)">
        <g transform="matrix(1,0,0,1,-367.5,-367.5)">
            <clipPath id="_clip1">
                <rect x="0" y="0" width="735" height="735"/>
            </clipPath>
            <g clip-path="url(#_clip1)">
                <g transform="matrix(1,0,0,1,-131.241,-26.1598)">
                    <g id="Logo">
                        <g transform="matrix(14.6168,0,0,14.6168,-391.115,-652.646)">
                            <path d="M86.017,54.988C86.017,50.27 82.187,46.44 77.469,46.44L44.284,46.44C39.567,46.44 35.737,50.27 35.737,54.988L35.737,88.173C35.737,92.89 39.567,96.72 44.284,96.72L77.469,96.72C82.187,96.72 86.017,92.89 86.017,88.173L86.017,54.988Z" style="fill:rgb(30,32,42);"/>
                        </g>
                        <g transform="matrix(14.6168,0,0,14.6168,-391.115,-641.568)">
                            <path d="M76.526,70.446C76.526,66.496 74.957,62.707 72.164,59.914C69.37,57.121 65.582,55.552 61.632,55.552L60.122,55.552C56.171,55.552 52.383,57.121 49.59,59.914C46.797,62.707 45.227,66.496 45.227,70.446L45.227,71.956C45.227,75.906 46.797,79.695 49.59,82.488C52.383,85.281 56.171,86.851 60.122,86.851L61.632,86.851C65.582,86.851 69.37,85.281 72.164,82.488C74.957,79.695 76.526,75.906 76.526,71.956L76.526,70.446Z" style="fill:white;"/>
                        </g>
                        <g transform="matrix(14.6168,0,0,14.6168,-391.115,-659.8)">
                            <path d="M42.497,63.797L51.275,63.825L51.275,79.853L76.724,79.853" style="fill:none;fill-rule:nonzero;stroke:rgb(30,32,42);stroke-width:2.85px;"/>
                        </g>
                        <g id="Bars">
                            <g transform="matrix(14.6168,0,0,14.6168,-391.115,-759.138)">
                                <path d="M73.876,75.223L80.421,75.223" style="fill:none;fill-rule:nonzero;stroke:rgb(34,150,243);stroke-width:2.28px;"/>
                            </g>
                            <g transform="matrix(14.6168,0,0,14.6168,-391.115,-862.306)">
                                <path d="M77.552,78.752L83.29,78.752" style="fill:none;fill-rule:nonzero;stroke:rgb(34,150,243);stroke-width:2.28px;"/>
                            </g>
                        </g>
                        <g id="Bars1" serif:id="Bars">
                            <g>
                                <g transform="matrix(10.44,0,0,14.6168,-135.83,-502.641)">
                                    <path d="M61.856,66.541L94.157,66.541" style="fill:none;fill-rule:nonzero;stroke:white;stroke-width:2.62px;"/>
                                </g>
                                <g transform="matrix(1,0,0,0.980923,705.172,165.882)">
                                    <rect x="131.241" y="293" width="29.759" height="34" style="fill:white;"/>
                                </g>
                            </g>
                            <g>
                                <g transform="matrix(8.24902,0,0,14.6168,-86.696,-816.47)">
                                    <path d="M28.723,77.096L47.755,77.096" style="fill:none;fill-rule:nonzero;stroke:white;stroke-width:2.81px;"/>
                                </g>
                                <g transform="matrix(1,0,0,0.980923,0,6.32331)">
                                    <rect x="131.241" y="293" width="29.759" height="34" style="fill:white;"/>
                                </g>
                            </g>
                        </g>
                        <g id="texte">
                            <g transform="matrix(14.6168,0,0,14.6168,-391.115,-569.94)">
                                <path d="M57.626,69.835C57.684,69.67 57.858,69.577 58.027,69.621C58.028,69.616 58.029,69.616 58.029,69.616C58.128,69.642 58.212,69.709 58.259,69.8C58.305,69.892 58.311,69.999 58.273,70.095C58.119,70.478 57.902,70.785 57.619,71.013C57.248,71.312 56.794,71.462 56.258,71.462C55.703,71.462 55.252,71.347 54.904,71.117C54.556,70.887 54.292,70.553 54.11,70.117C53.929,69.681 53.838,69.212 53.838,68.712C53.838,68.166 53.941,67.69 54.146,67.283C54.35,66.877 54.642,66.568 55.02,66.357C55.398,66.146 55.814,66.041 56.269,66.041C56.784,66.041 57.217,66.174 57.568,66.441C57.812,66.626 58.004,66.864 58.145,67.153C58.193,67.25 58.193,67.364 58.147,67.461C58.101,67.559 58.013,67.63 57.908,67.656L57.91,67.662C57.756,67.698 57.599,67.621 57.534,67.476C57.427,67.221 57.285,67.028 57.112,66.895C56.884,66.721 56.599,66.634 56.255,66.634C55.859,66.634 55.528,66.731 55.262,66.924C54.997,67.117 54.81,67.376 54.702,67.702C54.595,68.027 54.541,68.363 54.541,68.708C54.541,69.154 54.604,69.543 54.732,69.876C54.86,70.208 55.058,70.457 55.327,70.621C55.597,70.786 55.888,70.868 56.202,70.868C56.584,70.868 56.907,70.756 57.171,70.532C57.372,70.362 57.524,70.13 57.626,69.835Z" style="fill:rgb(30,32,42);fill-rule:nonzero;"/>
                            </g>
                            <g transform="matrix(14.6168,0,0,14.6168,-391.115,-569.993)">
                                <path d="M59.022,68.823C59.022,67.952 59.252,67.271 59.711,66.779C60.17,66.287 60.762,66.041 61.488,66.041C61.963,66.041 62.392,66.156 62.773,66.387C63.155,66.619 63.446,66.941 63.646,67.355C63.846,67.768 63.947,68.237 63.947,68.762C63.947,69.293 63.841,69.769 63.63,70.189C63.42,70.608 63.121,70.926 62.735,71.142C62.348,71.357 61.932,71.465 61.484,71.465C61,71.465 60.567,71.346 60.185,71.108C59.803,70.869 59.514,70.544 59.317,70.131C59.121,69.719 59.022,69.283 59.022,68.823ZM59.725,68.833C59.725,69.465 59.892,69.963 60.225,70.326C60.559,70.69 60.977,70.872 61.481,70.872C61.994,70.872 62.416,70.688 62.747,70.321C63.078,69.954 63.244,69.433 63.244,68.758C63.244,68.332 63.173,67.959 63.032,67.641C62.89,67.323 62.683,67.076 62.41,66.901C62.137,66.725 61.831,66.638 61.491,66.638C61.009,66.638 60.594,66.806 60.246,67.144C59.899,67.481 59.725,68.044 59.725,68.833Z" style="fill:rgb(30,32,42);fill-rule:nonzero;"/>
                            </g>
                            <g transform="matrix(14.6168,0,0,14.6168,-391.115,-569.94)">
                                <path d="M65.889,71.372C65.301,71.372 64.825,70.896 64.825,70.308L64.825,67.194C64.825,66.912 64.937,66.641 65.136,66.442C65.336,66.242 65.607,66.13 65.889,66.13L66.598,66.13C66.999,66.13 67.304,66.155 67.515,66.205C67.81,66.274 68.062,66.399 68.27,66.58C68.542,66.814 68.745,67.113 68.879,67.476C69.014,67.84 69.081,68.255 69.081,68.722C69.081,69.121 69.036,69.473 68.944,69.781C68.853,70.088 68.736,70.343 68.593,70.544C68.45,70.746 68.294,70.904 68.124,71.02C67.955,71.136 67.75,71.223 67.51,71.283C67.27,71.342 66.994,71.372 66.682,71.372L65.889,71.372ZM65.506,70.215C65.506,70.358 65.563,70.495 65.664,70.596C65.765,70.697 65.902,70.754 66.045,70.754L66.605,70.754C66.945,70.754 67.211,70.721 67.404,70.657C67.597,70.593 67.751,70.502 67.866,70.385C68.028,70.221 68.153,70 68.244,69.722C68.334,69.444 68.379,69.107 68.379,68.712C68.379,68.163 68.291,67.742 68.114,67.448C67.937,67.153 67.722,66.956 67.469,66.856C67.287,66.784 66.993,66.748 66.588,66.748L66.045,66.748C65.902,66.748 65.765,66.805 65.664,66.906C65.563,67.007 65.506,67.144 65.506,67.287L65.506,70.215Z" style="fill:rgb(30,32,42);fill-rule:nonzero;"/>
                            </g>
                            <g transform="matrix(14.6168,0,0,14.6168,-391.115,-569.94)">
                                <path d="M70.818,71.372C70.384,71.372 70.033,71.021 70.033,70.588L70.033,66.914C70.033,66.481 70.384,66.13 70.818,66.13L73.447,66.13C73.529,66.13 73.608,66.162 73.666,66.22C73.724,66.278 73.756,66.357 73.756,66.439C73.756,66.61 73.618,66.748 73.447,66.748L71.102,66.748C70.999,66.748 70.901,66.789 70.828,66.862C70.755,66.935 70.715,67.033 70.715,67.136L70.715,68.354L73.057,68.354C73.226,68.354 73.364,68.492 73.364,68.662C73.364,68.831 73.226,68.969 73.057,68.969L70.715,68.969L70.715,70.366C70.715,70.469 70.755,70.567 70.828,70.64C70.901,70.713 70.999,70.754 71.102,70.754L73.567,70.754C73.737,70.754 73.876,70.892 73.876,71.063C73.876,71.145 73.843,71.224 73.785,71.282C73.727,71.34 73.648,71.372 73.567,71.372L70.818,71.372Z" style="fill:rgb(30,32,42);fill-rule:nonzero;"/>
                            </g>
                        </g>
                    </g>
                </g>
            </g>
        </g>
    </g>
</svg>
